<svg width="239" height="50" viewBox="0 0 239 50" fill="none" xmlns="http://www.w3.org/2000/svg">
<path fill-rule="evenodd" clip-rule="evenodd" d="M0 25C0 11.2005 11.2005 0 25 0C38.7995 0 50 11.2005 50 25C50 38.7995 38.7995 50 25 50C11.2005 50 0 38.7995 0 25ZM39.2946 41.5223V29.9505L31.4975 29.0223V45.9158C30.6931 46.1634 29.8886 46.349 29.0842 46.5347V26.2376L39.3564 27.9084V21.5965L25 17.203L10.6436 21.5965V27.9084L20.9158 26.2376V46.5347C20.8068 46.5095 20.6966 46.4843 20.5857 46.459L20.5857 46.459C19.8787 46.2975 19.1444 46.1298 18.5025 45.9158V29.0223L10.6436 29.9505V41.5223C6.06435 37.5 3.15594 31.6213 3.15594 25.0619C3.15594 12.9951 12.9332 3.21782 25 3.21782C37.0668 3.21782 46.8441 12.9951 46.8441 25.0619C46.8441 31.6213 43.9356 37.5 39.2946 41.5223ZM34.7772 13.2426L25 8.84901L15.2228 13.2426V10.3342L25 5.38367L34.7772 10.3342V13.2426ZM10.6436 19.9257V16.8317L25 10.8911L39.3564 16.8317V19.9257L25 15.0371L10.6436 19.9257ZM144.142 16.3808V19.3111L150.206 18.3343V34.7558L152 35L153.794 34.7558V18.3343L159.858 19.3111V16.3808L152 14L144.142 16.3808ZM129.477 15.7704L137.768 27.7355V15.7704H141.357V34.2675H138.449L129.538 21.5698V34.2675H125.95V15.7704H129.477ZM100.147 28.7733C100.394 27.9186 100.518 26.8198 100.518 25.5378V15.8314H104.107V26.3925C104.107 28.9564 103.426 31.032 102.065 32.4971C100.703 33.9622 98.6615 34.6948 96.0007 34.6948C93.34 34.6948 91.3599 33.9622 89.9986 32.4971C88.6373 31.032 87.9566 28.9564 87.9566 26.3925V15.8314H91.4837V25.5378C91.4837 26.8198 91.6074 27.9186 91.8549 28.7733C92.1024 29.5669 92.5975 30.2384 93.2162 30.7268C93.835 31.2151 94.825 31.4593 96.0007 31.4593C97.2383 31.4593 98.1664 31.2151 98.7852 30.7268C99.4659 30.2994 99.899 29.6279 100.147 28.7733ZM211.898 26.3314H218.766V23.0349H211.898V19.1279H220.684V15.8314H208.247V34.3285H220.994V31.032H211.898V26.3314ZM194.696 15.8314L199.089 28.5901L202.802 15.8314H206.39L200.821 34.3285H197.728L193.52 21.9971L189.312 34.3285H186.033L180.711 15.8314H184.3L188.075 28.9564L192.282 15.8314H194.696ZM82.9445 20.0436C82.1401 18.5785 80.9644 17.4797 79.5413 16.6861C78.1181 15.8925 76.4474 15.4651 74.591 15.4651C72.7347 15.4651 71.1259 15.8925 69.6408 16.6861C68.2176 17.4797 67.042 18.5785 66.2376 20.0436C65.4331 21.5087 65 23.157 65 25.0494C65 26.9419 65.4331 28.6512 66.2376 30.1163C67.042 31.5814 68.2176 32.6803 69.6408 33.4739C71.1259 34.2675 72.7347 34.6338 74.591 34.6338C76.633 34.6338 78.4893 34.1454 80.0982 33.1076L81.9545 34.7558L84.1202 32.4971L82.3876 30.9099C83.5633 29.2617 84.1821 27.3082 84.1821 24.9884C84.1821 23.157 83.7489 21.5087 82.9445 20.0436ZM77.3137 26.3925L79.665 28.5291C80.2219 27.5524 80.4694 26.3925 80.4075 24.9884C80.4075 23.096 79.8506 21.5698 78.8606 20.4099C77.8706 19.25 76.4474 18.6396 74.5292 18.6396C72.611 18.6396 71.1259 19.25 70.1358 20.4099C69.1458 21.5698 68.6508 23.096 68.6508 24.9884C68.6508 26.8808 69.1458 28.407 70.1358 29.5669C71.1878 30.7268 72.611 31.3372 74.5292 31.3372C75.7048 31.3372 76.633 31.1541 77.4374 30.7268L75.1479 28.6512L77.3137 26.3925ZM106.149 34.3285L113.079 15.8314H116.482L123.413 34.3285H119.947L118.339 29.9332H111.223L109.614 34.3285H106.149ZM112.336 26.9419L114.812 20.3489L117.225 26.9419H112.336ZM175.08 16.6861C173.657 15.8925 171.986 15.4651 170.13 15.4651C168.274 15.4651 166.665 15.8925 165.18 16.6861C163.757 17.4797 162.581 18.5785 161.777 20.0436C160.972 21.5087 160.539 23.157 160.539 25.0494C160.539 26.9419 160.972 28.6512 161.777 30.1163C162.581 31.5814 163.757 32.6803 165.18 33.4739C166.665 34.2675 168.274 34.6338 170.13 34.6338C171.986 34.6338 173.595 34.2675 175.08 33.4739C176.565 32.6803 177.679 31.5204 178.484 30.1163C179.288 28.6512 179.721 27.0029 179.721 25.0494C179.721 23.096 179.288 21.4477 178.484 20.0436C177.679 18.5785 176.565 17.4797 175.08 16.6861ZM170.192 31.4593C172.048 31.4593 173.533 30.8489 174.523 29.689C175.514 28.5291 176.07 27.0029 176.07 25.1105C176.07 23.2181 175.514 21.6919 174.523 20.532C173.533 19.3721 172.11 18.7617 170.192 18.7617C168.274 18.7617 166.789 19.3721 165.799 20.532C164.809 21.6919 164.314 23.2181 164.314 25.1105C164.314 27.0029 164.809 28.5291 165.799 29.689C166.851 30.8489 168.274 31.4593 170.192 31.4593ZM237.082 24.6221C236.463 25.4157 235.659 26.0872 234.607 26.5756L239 34.3896H235.04L231.265 27.5524H227.676V34.3896H224.087V15.8925H231.265C233.307 15.8925 234.978 16.3198 236.154 17.2965C237.329 18.2122 237.948 19.6163 237.948 21.4477C237.948 22.7297 237.639 23.7675 237.082 24.6221ZM230.275 24.6221H227.676V18.6396H230.399C231.76 18.6396 232.688 18.8837 233.307 19.4332C233.926 19.9215 234.174 20.6541 234.174 21.6308C234.174 23.5843 232.874 24.6221 230.275 24.6221Z" fill="#6EDEFA"/>
</svg>
