<svg width="280" height="49" viewBox="0 0 280 49" fill="none" xmlns="http://www.w3.org/2000/svg">
<g clip-path="url(#clip0_5836_24049)">
<path d="M63.8555 33.6783H61.3412L55.0859 17.8916H59.1088L61.6231 24.3602C61.9659 25.2897 62.3774 26.524 62.6897 27.6287H62.7583C63.0631 26.5316 63.4821 25.2897 63.825 24.3602L66.3316 17.8916H70.1107L63.8555 33.6783Z" fill="#2C1573"/>
<path d="M81.12 33.9221C76.4419 33.9221 72.7314 30.5849 72.7314 25.7011C72.7314 20.8173 76.4419 17.4497 81.12 17.4497C85.7981 17.4497 89.4781 20.7868 89.4781 25.7011C89.4781 30.6154 85.7981 33.9221 81.12 33.9221ZM81.12 21.0611C78.8191 21.0611 76.8229 22.9888 76.8229 25.7697C76.8229 28.5507 78.8191 30.4478 81.12 30.4478C83.421 30.4478 85.4172 28.5202 85.4172 25.7697C85.4172 23.0192 83.421 21.0611 81.12 21.0611Z" fill="#2C1573"/>
<path d="M98.3622 34.0893C96.2593 33.8836 94.126 32.5427 94.126 29.175V8.99219H98.1869V28.6569C98.1869 29.9979 99.1165 30.8589 100.29 30.996L98.3622 34.0893Z" fill="#2C1573"/>
<path d="M108.648 33.6476C106.796 33.6476 105.387 33.1676 104.351 32.4133L104.046 30.0438C105.212 31.0419 106.827 31.7962 108.686 31.7962C110.408 31.7962 111.741 30.9048 111.741 29.3886C111.741 27.9791 110.644 27.1562 108.884 26.5314C106.065 25.5333 104.45 24.2305 104.45 21.8229C104.45 19.4153 106.446 17.7314 109.196 17.7314C110.842 17.7314 112.358 18.28 112.975 18.7295L112.495 20.5886C111.81 20.0705 110.674 19.56 109.158 19.56C107.642 19.56 106.583 20.4514 106.583 21.7619C106.583 23.141 107.513 23.7581 109.234 24.3753C112.16 25.4038 113.913 26.7829 113.913 29.3581C113.913 31.9334 111.886 33.6553 108.648 33.6553V33.6476Z" fill="#2C1573"/>
<path d="M125.813 32.1313C123.581 37.6018 121.135 40.1084 117.905 41.4875L116.495 40.078C119.588 38.8056 121.585 36.7408 123.406 32.5808L117.348 17.8989H119.619L122.948 26.0132C123.428 27.217 124.053 28.7256 124.503 30.1046H124.571C125.089 28.8018 125.775 27.1104 126.225 26.0132L129.554 17.8989H131.657L125.813 32.1389V32.1313Z" fill="#2C1573"/>
<path d="M139.954 33.6476C138.103 33.6476 136.693 33.1676 135.657 32.4133L135.353 30.0438C136.518 31.0419 138.134 31.7962 139.993 31.7962C141.714 31.7962 143.048 30.9048 143.048 29.3886C143.048 27.9791 141.951 27.1562 140.191 26.5314C137.372 25.5333 135.756 24.2305 135.756 21.8229C135.756 19.4153 137.753 17.7314 140.503 17.7314C142.149 17.7314 143.665 18.28 144.282 18.7295L143.802 20.5886C143.116 20.0705 141.981 19.56 140.465 19.56C138.949 19.56 137.89 20.4514 137.89 21.7619C137.89 23.141 138.819 23.7581 140.541 24.3753C143.467 25.4038 145.219 26.7829 145.219 29.3581C145.219 31.9334 143.193 33.6553 139.954 33.6553V33.6476Z" fill="#2C1573"/>
<path d="M15.4361 15.7887H17.059V34.2192H15.4361V38.8287H13.8133V34.2192H12.1904V15.7887H13.8133V11.1792H15.4361V15.7887ZM24.8152 11.1792H23.1923V15.7887H21.5695V34.2192H23.1923V38.8287H24.8152V34.2192H26.438V15.7887H24.8152V11.1792ZM35.8247 15.7887H34.2019V11.1792H32.579V15.7887H30.9561V34.2192H32.579V38.8287H34.2019V34.2192H35.8247V15.7887Z" fill="url(#paint0_linear_5836_24049)"/>
<path d="M48 49H0V1H48V49ZM3.05524 45.9448H44.9448V4.05524H3.05524V45.9448Z" fill="#2C1573"/>
</g>
<defs>
<linearGradient id="paint0_linear_5836_24049" x1="12.1828" y1="25.0002" x2="35.8171" y2="25.0002" gradientUnits="userSpaceOnUse">
<stop stop-color="#4451FF"/>
<stop offset="1" stop-color="#00DBFF"/>
</linearGradient>
<clipPath id="clip0_5836_24049">
<rect width="145.219" height="48" fill="white" transform="translate(0 1)"/>
</clipPath>
</defs>
</svg>
