<svg width="280" height="50" viewBox="0 0 280 50" fill="none" xmlns="http://www.w3.org/2000/svg">
<g clip-path="url(#clip0_5834_24024)">
<path d="M66.3133 31.0117H64.4067L59.6641 19.0479H62.7146L64.6212 23.9514C64.8774 24.6544 65.1932 25.5958 65.4255 26.4299H65.4792C65.7115 25.5958 66.0273 24.6544 66.2894 23.9514L68.1901 19.0479H71.0559L66.3133 31.0117Z" fill="#2C1573"/>
<path d="M79.4032 31.1908C75.8581 31.1908 73.0459 28.6645 73.0459 24.9586C73.0459 21.2527 75.8581 18.7026 79.4032 18.7026C82.9482 18.7026 85.7426 21.2289 85.7426 24.9586C85.7426 28.6884 82.9542 31.1908 79.4032 31.1908ZM79.4032 21.4434C77.6575 21.4434 76.1441 22.9031 76.1441 25.0122C76.1441 27.1214 77.6575 28.5573 79.4032 28.5573C81.1489 28.5573 82.6622 27.0976 82.6622 25.0122C82.6622 22.9269 81.1489 21.4434 79.4032 21.4434Z" fill="#2C1573"/>
<path d="M92.475 31.3217C90.8842 31.1668 89.2695 30.148 89.2695 27.592V12.2856H92.3439V27.1987C92.3439 28.2176 93.047 28.867 93.9347 28.9742L92.475 31.3217Z" fill="#2C1573"/>
<path d="M104.97 30.8568V29.2898H104.946C104.451 30.4397 103.301 31.1666 101.317 31.1666C98.7375 31.1666 97.0156 29.5996 97.0156 27.0496V19.0479H100.12V26.4537C100.12 27.4964 100.769 28.5152 102.36 28.5152C103.951 28.5152 104.708 27.5262 104.708 26.4299V19.0538H107.812V30.8627H104.97V30.8568Z" fill="#2C1573"/>
<path d="M126.591 30.8571V23.4274C126.591 22.3847 126.174 21.3957 124.482 21.3957C122.79 21.3957 122.265 22.3847 122.265 23.481V30.8571H119.161V23.4274C119.161 22.3847 118.744 21.3957 117.046 21.3957C115.348 21.3957 114.83 22.3847 114.83 23.481V30.8571H111.726V19.0482H114.514L114.568 20.639H114.591C115.086 19.4891 116.182 18.7324 118.083 18.7324C119.674 18.7324 121.002 19.3819 121.574 20.5556C122.152 19.5129 123.582 18.7324 125.328 18.7324C128.039 18.7324 129.683 20.2994 129.683 22.8495V30.8512H126.579L126.591 30.8571Z" fill="#2C1573"/>
<path d="M144.197 24.2613L142.684 25.7747H136.243C136.344 27.002 137.703 28.5631 140.074 28.5631C141.456 28.5631 142.63 28.1698 143.435 27.6276L143.125 30.4458C142.237 30.8867 141.039 31.2025 139.502 31.2025C136.011 31.2025 133.062 28.7001 133.062 24.9465C133.062 21.1929 136.011 18.7144 139.085 18.7144C142.344 18.7144 144.275 21.0082 144.275 23.3259C144.275 23.6417 144.251 24.0051 144.197 24.2673V24.2613ZM139.139 21.1572C137.864 21.1572 136.583 22.176 136.327 23.5285H141.278C141.278 23.4272 141.302 23.3438 141.302 23.2425C141.302 22.2535 140.444 21.1572 139.139 21.1572Z" fill="#2C1573"/>
<path d="M155.286 21.5444H151.842V26.8888C151.842 28.0863 152.468 28.5034 153.618 28.5034C154.035 28.5034 154.35 28.4498 154.636 28.3485L154.374 30.7496C154.035 30.9045 153.463 31.0118 152.837 31.0118C150.442 31.0118 148.798 29.7069 148.798 27.3892V21.5503H146.635V19.0479H148.798V16.5992L151.848 15.2705V19.0479H155.834L155.286 21.5503V21.5444Z" fill="#2C1573"/>
<path d="M165.486 22.3011C165.278 22.2236 164.861 22.1164 164.497 22.1164C163.115 22.1164 161.762 22.7956 161.762 25.1133V30.8509H158.658V19.042H161.733V21.5742H161.762C162.179 19.7987 163.508 18.8633 165.123 18.8633C165.462 18.8633 166.01 18.9169 166.267 19.0182L165.486 22.3011Z" fill="#2C1573"/>
<path d="M170.812 17.0876C170.24 17.0876 169.066 15.9139 169.066 15.3419C169.066 14.7699 170.24 13.5962 170.812 13.5962C171.384 13.5962 172.534 14.7699 172.534 15.3419C172.534 15.9139 171.414 17.0876 170.812 17.0876ZM169.221 30.8508V19.0419H172.373V30.8508H169.221Z" fill="#2C1573"/>
<path d="M185.493 22.3786C184.581 21.7768 183.694 21.5683 182.675 21.5683C180.774 21.5683 179.13 22.9207 179.13 25.012C179.13 27.1033 180.798 28.4558 182.729 28.4558C183.795 28.4558 184.605 28.2473 185.571 27.7766L185.255 30.4875C184.444 30.8807 183.432 31.0595 182.282 31.0595C179.046 31.0595 175.948 28.7418 175.948 24.9584C175.948 21.175 179.076 18.8335 182.258 18.8335C183.825 18.8335 185.046 19.1433 186.065 19.7212L185.493 22.3786Z" fill="#2C1573"/>
<path d="M197.516 31.2442C196.759 31.0893 195.925 30.4875 195.663 29.5521C195.115 30.7258 193.917 31.1965 192.535 31.1965C190.319 31.1965 188.65 29.5819 188.65 27.4191C188.65 25.2563 190.45 23.8204 192.613 23.6119L195.192 23.3795V22.8076C195.192 21.9198 194.567 21.2406 193.107 21.2406C191.957 21.2406 190.682 21.6338 189.818 22.182L189.246 19.7332C190.265 19.0838 191.749 18.7144 193.262 18.7144C196.158 18.7144 198.189 20.1741 198.189 22.9923V27.3178C198.189 28.5452 198.767 29.1946 199.601 29.427L197.516 31.2502V31.2442ZM195.198 25.5602L193.345 25.7151C192.094 25.8164 191.57 26.6267 191.57 27.4132C191.57 28.146 192.142 28.7954 193.03 28.7954C194.203 28.7954 195.192 27.9077 195.192 26.6029V25.5602H195.198Z" fill="#2C1573"/>
<path d="M209.516 20.4004H205.5V27.699C205.5 29.0813 206.257 29.5996 207.401 29.5996C207.872 29.5996 208.289 29.5222 208.599 29.3673L208.414 30.7197C208.104 30.9045 207.604 30.9521 207.109 30.9521C205.31 30.9521 203.874 29.8856 203.874 27.8241V20.3944H201.526V19.0419H203.874V16.4859L205.489 15.6279V19.0419H209.814L209.504 20.3944L209.516 20.4004Z" fill="#2C1573"/>
<path d="M219.115 20.7401C218.906 20.6865 218.543 20.6388 218.203 20.6388C216.38 20.6388 214.712 21.8125 214.712 24.8333V30.8569H213.073V19.048H214.712V21.7351H214.742C215.105 20.0668 216.463 18.8931 218.388 18.8931C218.698 18.8931 219.222 18.9467 219.508 19.048L219.115 20.746V20.7401Z" fill="#2C1573"/>
<path d="M230.095 31.1129C229.291 30.9282 228.35 30.2252 228.242 29.0276C227.801 30.3801 226.389 31.1129 224.882 31.1129C222.612 31.1129 221.099 29.5757 221.099 27.6453C221.099 25.3515 222.922 24.1539 224.93 23.9692L228.034 23.6832V22.5631C228.034 21.1033 227.015 20.2156 225.245 20.2156C224.072 20.2156 222.874 20.579 222.117 21.1033L221.778 19.7211C222.689 19.0955 223.917 18.7856 225.323 18.7856C227.849 18.7856 229.702 20.1918 229.702 22.7239V28.122C229.702 29.2957 230.405 29.9213 231.162 30.0524L230.089 31.1189L230.095 31.1129ZM228.034 25.0655L225.245 25.3276C223.601 25.4825 222.689 26.3703 222.689 27.6453C222.689 28.8191 223.655 29.7068 225.007 29.7068C226.52 29.7068 228.028 28.5569 228.028 26.6563V25.0655H228.034Z" fill="#2C1573"/>
<path d="M243.215 30.8568V29.552H243.191C242.619 30.3325 241.368 31.1189 239.491 31.1189C236.518 31.1189 233.599 28.8251 233.599 24.9642C233.599 21.3656 236.178 18.7857 239.646 18.7857C241.159 18.7857 242.566 19.3815 243.138 20.0131V12.2974H244.806V30.8568H243.215ZM243.138 21.6516C242.566 21.026 241.416 20.2693 239.801 20.2693C237.245 20.2693 235.267 22.2235 235.267 24.9881C235.267 27.7526 237.251 29.683 239.801 29.683C241.368 29.683 242.542 28.9025 243.138 28.1161V21.6516Z" fill="#2C1573"/>
<path d="M250.472 16.7007C250.109 16.7007 249.328 15.9202 249.328 15.5508C249.328 15.1576 250.109 14.4009 250.472 14.4009C250.865 14.4009 251.616 15.1576 251.616 15.5508C251.616 15.9142 250.859 16.7007 250.472 16.7007ZM249.638 30.8571V19.0482H251.306V30.8571H249.638Z" fill="#2C1573"/>
<path d="M264.271 30.8571V23.0639C264.271 21.4195 263.097 20.2219 261.012 20.2219C258.926 20.2219 257.645 21.4195 257.645 23.0639V30.8571H256.007V19.0482H257.544V20.8237H257.568C257.961 19.7274 259.159 18.792 261.399 18.792C263.979 18.792 265.909 20.3292 265.909 22.909V30.8631H264.271V30.8571Z" fill="#2C1573"/>
<path d="M274.81 36.8744C271.682 36.8744 269.573 35.1287 269.573 32.805C269.573 30.6661 270.956 29.4447 272.26 29.2063L271.063 28.0088C271.063 27.0972 271.611 26.2869 272.808 26.0783C271.581 25.6374 270.461 24.4339 270.461 22.6882C270.461 20.4182 272.26 18.7797 274.787 18.7797C275.412 18.7797 275.907 18.8571 276.3 18.9882C276.741 19.1193 277.235 19.1968 277.837 19.1968C278.487 19.1968 279.19 19.0121 279.636 18.7559L279.976 20.1083C279.613 20.3407 278.725 20.5492 278.123 20.4718C278.618 20.8889 279.088 21.6992 279.088 22.6882C279.088 24.8033 277.45 26.6265 274.787 26.6265C273.482 26.6265 272.808 26.9661 272.808 27.5381C272.808 27.8479 273.148 28.1637 273.666 28.3484L276.848 29.4149C278.856 30.0941 280 31.1606 280 33.1148C280 35.224 277.885 36.8684 274.81 36.8684V36.8744ZM276.324 30.8269L273.714 30.0166C272.231 30.0166 271.104 31.244 271.104 32.7812C271.104 34.1635 272.433 35.4683 274.781 35.4683C277.128 35.4683 278.427 34.2409 278.427 33.097C278.427 31.953 277.623 31.244 276.318 30.8269H276.324ZM274.787 20.1381C273.172 20.1381 271.974 21.288 271.974 22.6942C271.974 24.1003 273.172 25.2502 274.787 25.2502C276.3 25.2502 277.551 24.13 277.551 22.6942C277.551 21.2583 276.354 20.1381 274.787 20.1381Z" fill="#2C1573"/>
<path d="M43.7144 3.51527H44.9716V24.589H43.7144V28.1043H42.5169V24.589H41.2597V3.51527H42.5169V0H43.7144V3.51527ZM37.7564 7.03053H36.5588V10.5398H35.3016V31.6136H36.5588V35.1288H37.7564V31.6136H39.0135V10.5339H37.7564V7.02458V7.03053ZM31.834 14.0551H30.6365V17.5704H29.3793V38.6441H30.6365V42.1534H31.834V38.6441H33.0912V17.5585H31.834V14.0432V14.0551ZM26.0726 21.0797H24.875V24.595H23.6178V45.6687H24.875V49.184H26.0726V45.6687H27.3297V24.595H26.0726V21.0797ZM50.9416 3.51527H49.7023V0H48.463V3.51527H47.2238V14.0492H48.463V17.5644H49.7023V14.0492H50.9416V3.51527ZM8.42473 0H7.22715V3.51527H5.97V24.589H7.22715V28.1043H8.42473V24.589H9.68188V3.51527H8.42473V0ZM14.3828 7.02458H13.1852V10.5339H11.9281V31.6076H13.1852V35.1229H14.3828V31.6076H15.64V10.5339H14.3828V7.02458ZM20.3051 14.0492H19.1076V17.5644H17.8504V38.6381H19.1076V42.1475H20.3051V38.6381H21.5623V17.5585H20.3051V14.0432V14.0492ZM2.47856 0H1.23928V3.51527H0V14.0492H1.23928V17.5644H2.47856V14.0492H3.71784V3.51527H2.47856V0Z" fill="url(#paint0_linear_5834_24024)"/>
</g>
<defs>
<linearGradient id="paint0_linear_5834_24024" x1="0" y1="24.583" x2="50.9416" y2="24.583" gradientUnits="userSpaceOnUse">
<stop stop-color="#4451FF"/>
<stop offset="1" stop-color="#00DBFF"/>
</linearGradient>
<clipPath id="clip0_5834_24024">
<rect width="280" height="49.172" fill="white"/>
</clipPath>
</defs>
</svg>
